HIERARCHY
ROOT Hips
{
	OFFSET 0.000000 83.214638 0.000000
	CHANNELS 6 Xposition Yposition Zposition Xrotation Yrotation Zrotation
	JOINT Pelvis
	{
		OFFSET 0.000000 0.000000 0.000000
		CHANNELS 3 Xrotation Yrotation Zrotation
		JOINT LeftUpLeg
		{
			OFFSET 8.479700 -4.795502 -0.379100
			CHANNELS 3 Xrotation Yrotation Zrotation
			JOINT LeftLeg
			{
				OFFSET 0.024144 -32.555107 0.112900
				CHANNELS 3 Xrotation Yrotation Zrotation
				JOINT LeftFoot
				{
					OFFSET -0.024144 -32.638630 -3.012600
					CHANNELS 3 Xrotation Yrotation Zrotation
					JOINT LeftToeBase
					{
						OFFSET 0.970200 -13.225400 11.864200
						CHANNELS 3 Xrotation Yrotation Zrotation
						End Site
						{
							OFFSET 0.000000 12.319262 0.000000
						}
					}
					JOINT LFootTongue
					{
						OFFSET 1.142400 -1.059800 6.665200
						CHANNELS 3 Xrotation Yrotation Zrotation
						End Site
						{
							OFFSET 0.000000 12.319262 0.000000
						}
					}
				}
				JOINT LeftPantLeg
				{
					OFFSET 0.918482 -16.533964 -2.284700
					CHANNELS 3 Xrotation Yrotation Zrotation
					End Site
					{
						OFFSET 0.350399 24.744368 0.000000
					}
				}
			}
		}
		JOINT RightUpLeg
		{
			OFFSET -8.479700 -4.795502 -0.379100
			CHANNELS 3 Xrotation Yrotation Zrotation
			JOINT RightLeg
			{
				OFFSET -0.023144 -32.555092 0.112900
				CHANNELS 3 Xrotation Yrotation Zrotation
				JOINT RightFoot
				{
					OFFSET 0.023144 -32.638641 -3.012700
					CHANNELS 3 Xrotation Yrotation Zrotation
					JOINT RightToeBase
					{
						OFFSET -0.970200 -13.225400 11.864200
						CHANNELS 3 Xrotation Yrotation Zrotation
						End Site
						{
							OFFSET 0.000000 12.319244 0.000000
						}
					}
					JOINT RFootTongue
					{
						OFFSET -1.142200 -1.059800 6.665200
						CHANNELS 3 Xrotation Yrotation Zrotation
						End Site
						{
							OFFSET 0.000000 12.319243 0.000000
						}
					}
				}
				JOINT RightPantLeg
				{
					OFFSET -0.919482 -16.533978 -2.284800
					CHANNELS 3 Xrotation Yrotation Zrotation
					End Site
					{
						OFFSET -0.350400 24.744419 0.000000
					}
				}
			}
		}
	}
	JOINT Spine
	{
		OFFSET 0.000000 7.722000 1.166200
		CHANNELS 3 Xrotation Yrotation Zrotation
		JOINT Spine1
		{
			OFFSET 0.000000 12.024101 0.248800
			CHANNELS 3 Xrotation Yrotation Zrotation
			JOINT Spine2
			{
				OFFSET 0.000000 11.502998 -0.491200
				CHANNELS 3 Xrotation Yrotation Zrotation
				JOINT Neck
				{
					OFFSET 0.000000 18.430702 -3.123100
					CHANNELS 3 Xrotation Yrotation Zrotation
					JOINT Head
					{
						OFFSET 0.000000 9.051102 1.034000
						CHANNELS 3 Xrotation Yrotation Zrotation
						JOINT HairB
						{
							OFFSET 0.208400 24.786102 24.822300
							CHANNELS 3 Xrotation Yrotation Zrotation
							End Site
							{
								OFFSET 0.000000 32.263779 0.000000
							}
						}
						JOINT HairA
						{
							OFFSET -7.081100 24.428299 23.196600
							CHANNELS 3 Xrotation Yrotation Zrotation
							End Site
							{
								OFFSET 0.000000 32.263779 0.000000
							}
						}
						JOINT Hat
						{
							OFFSET 16.728800 15.048294 -15.439601
							CHANNELS 3 Xrotation Yrotation Zrotation
							End Site
							{
								OFFSET 0.000000 32.263779 0.000000
							}
						}
					}
				}
				JOINT LeftShoulder
				{
					OFFSET 6.197800 13.665199 -4.064700
					CHANNELS 3 Xrotation Yrotation Zrotation
					JOINT LeftArm
					{
						OFFSET 7.778100 -0.187103 -1.709300
						CHANNELS 3 Xrotation Yrotation Zrotation
						JOINT LeftForeArm
						{
							OFFSET 22.049376 0.000000 0.000000
							CHANNELS 3 Xrotation Yrotation Zrotation
							JOINT LeftHand
							{
								OFFSET 23.009392 0.000000 0.000000
								CHANNELS 3 Xrotation Yrotation Zrotation
								JOINT LeftHandThumb1
								{
									OFFSET 3.507191 -2.063065 3.133727
									CHANNELS 3 Xrotation Yrotation Zrotation
									JOINT LeftHandThumb2
									{
										OFFSET 3.101337 -1.790558 1.790558
										CHANNELS 3 Xrotation Yrotation Zrotation
										JOINT LeftHandThumb3
										{
											OFFSET 3.058640 -1.765907 1.765906
											CHANNELS 3 Xrotation Yrotation Zrotation
											End Site
											{
												OFFSET -0.415260 3.926476 -0.049563
											}
										}
									}
								}
								JOINT LeftHandIndex1
								{
									OFFSET 11.334419 -0.901459 3.706815
									CHANNELS 3 Xrotation Yrotation Zrotation
									JOINT LeftHandIndex2
									{
										OFFSET 3.283112 0.000000 0.000000
										CHANNELS 3 Xrotation Yrotation Zrotation
										JOINT LeftHandIndex3
										{
											OFFSET 3.323853 0.000000 0.000000
											CHANNELS 3 Xrotation Yrotation Zrotation
											End Site
											{
												OFFSET -1.135597 3.097809 0.402452
											}
										}
									}
								}
								JOINT LeftHandMiddle1
								{
									OFFSET 11.335861 0.000000 0.000000
									CHANNELS 3 Xrotation Yrotation Zrotation
									JOINT LeftHandMiddle2
									{
										OFFSET 3.410492 0.000000 0.000000
										CHANNELS 3 Xrotation Yrotation Zrotation
										JOINT LeftHandMiddle3
										{
											OFFSET 3.312172 0.000000 0.000000
											CHANNELS 3 Xrotation Yrotation Zrotation
											End Site
											{
												OFFSET -1.150200 3.080154 0.400270
											}
										}
									}
								}
								JOINT LeftHandRing1
								{
									OFFSET 11.514786 -0.013176 -3.003090
									CHANNELS 3 Xrotation Yrotation Zrotation
									JOINT LeftHandRing2
									{
										OFFSET 3.053307 0.000000 0.000000
										CHANNELS 3 Xrotation Yrotation Zrotation
										JOINT LeftHandRing3
										{
											OFFSET 3.295807 0.000000 0.000000
											CHANNELS 3 Xrotation Yrotation Zrotation
											End Site
											{
												OFFSET -1.281006 3.013344 0.375733
											}
										}
									}
								}
								JOINT LeftHandPinky1
								{
									OFFSET 10.518692 -0.960396 -5.730441
									CHANNELS 3 Xrotation Yrotation Zrotation
									JOINT LeftHandPinky2
									{
										OFFSET 2.861649 0.000000 0.000000
										CHANNELS 3 Xrotation Yrotation Zrotation
										JOINT LeftHandPinky3
										{
											OFFSET 2.863380 0.000000 0.000000
											CHANNELS 3 Xrotation Yrotation Zrotation
											End Site
											{
												OFFSET -0.843597 2.711159 0.369971
											}
										}
									}
								}
							}
							JOINT LSleeve
							{
								OFFSET 6.676277 -0.344902 -1.011730
								CHANNELS 3 Xrotation Yrotation Zrotation
								End Site
								{
									OFFSET 0.000000 14.885353 0.000000
								}
							}
						}
					}
				}
				JOINT RightShoulder
				{
					OFFSET -6.197800 13.665199 -4.064700
					CHANNELS 3 Xrotation Yrotation Zrotation
					JOINT RightArm
					{
						OFFSET -7.778100 -0.187103 -1.709300
						CHANNELS 3 Xrotation Yrotation Zrotation
						JOINT RightForeArm
						{
							OFFSET -22.049376 0.000000 0.000000
							CHANNELS 3 Xrotation Yrotation Zrotation
							JOINT RightHand
							{
								OFFSET -23.009392 0.000000 0.000000
								CHANNELS 3 Xrotation Yrotation Zrotation
								JOINT RightHandThumb1
								{
									OFFSET -3.507191 -2.063065 3.133727
									CHANNELS 3 Xrotation Yrotation Zrotation
									JOINT RightHandThumb2
									{
										OFFSET -3.101337 -1.790558 1.790558
										CHANNELS 3 Xrotation Yrotation Zrotation
										JOINT RightHandThumb3
										{
											OFFSET -3.058640 -1.765907 1.765906
											CHANNELS 3 Xrotation Yrotation Zrotation
											End Site
											{
												OFFSET 0.415260 3.926476 -0.049563
											}
										}
									}
								}
								JOINT RightHandIndex1
								{
									OFFSET -11.334419 -0.901459 3.706815
									CHANNELS 3 Xrotation Yrotation Zrotation
									JOINT RightHandIndex2
									{
										OFFSET -3.283112 0.000000 0.000000
										CHANNELS 3 Xrotation Yrotation Zrotation
										JOINT RightHandIndex3
										{
											OFFSET -3.323853 0.000000 0.000000
											CHANNELS 3 Xrotation Yrotation Zrotation
											End Site
											{
												OFFSET 1.135597 3.097809 0.402452
											}
										}
									}
								}
								JOINT RightHandMiddle1
								{
									OFFSET -11.335861 0.000000 0.000000
									CHANNELS 3 Xrotation Yrotation Zrotation
									JOINT RightHandMiddle2
									{
										OFFSET -3.410492 0.000000 0.000000
										CHANNELS 3 Xrotation Yrotation Zrotation
										JOINT RightHandMiddle3
										{
											OFFSET -3.312172 0.000000 0.000000
											CHANNELS 3 Xrotation Yrotation Zrotation
											End Site
											{
												OFFSET 1.150200 3.080154 0.400270
											}
										}
									}
								}
								JOINT RightHandRing1
								{
									OFFSET -11.514786 -0.013176 -3.003090
									CHANNELS 3 Xrotation Yrotation Zrotation
									JOINT RightHandRing2
									{
										OFFSET -3.053307 0.000000 0.000000
										CHANNELS 3 Xrotation Yrotation Zrotation
										JOINT RightHandRing3
										{
											OFFSET -3.295807 0.000000 0.000000
											CHANNELS 3 Xrotation Yrotation Zrotation
											End Site
											{
												OFFSET 1.281006 3.013344 0.375733
											}
										}
									}
								}
								JOINT RightHandPinky1
								{
									OFFSET -10.518692 -0.960396 -5.730441
									CHANNELS 3 Xrotation Yrotation Zrotation
									JOINT RightHandPinky2
									{
										OFFSET -2.861649 0.000000 0.000000
										CHANNELS 3 Xrotation Yrotation Zrotation
										JOINT RightHandPinky3
										{
											OFFSET -2.863380 0.000000 0.000000
											CHANNELS 3 Xrotation Yrotation Zrotation
											End Site
											{
												OFFSET 0.843597 2.711159 0.369971
											}
										}
									}
								}
							}
							JOINT RSleeve
							{
								OFFSET -6.676277 -0.344902 -1.011730
								CHANNELS 3 Xrotation Yrotation Zrotation
								End Site
								{
									OFFSET 0.000000 14.885353 0.000000
								}
							}
						}
					}
				}
				JOINT Backpack
				{
					OFFSET 0.000000 -2.471497 36.677502
					CHANNELS 3 Xrotation Yrotation Zrotation
					End Site
					{
						OFFSET 0.000000 20.427315 0.000000
					}
				}
				JOINT Hood
				{
					OFFSET 0.000000 18.754097 -10.431000
					CHANNELS 3 Xrotation Yrotation Zrotation
					JOINT Hood1
					{
						OFFSET 0.000000 -5.011002 -7.685901
						CHANNELS 3 Xrotation Yrotation Zrotation
						End Site
						{
							OFFSET 0.000000 9.175140 0.000000
						}
					}
				}
				JOINT LHoodieString
				{
					OFFSET 5.250500 16.397697 3.089900
					CHANNELS 3 Xrotation Yrotation Zrotation
					JOINT LHoodieString1
					{
						OFFSET 0.257700 -6.364304 3.694600
						CHANNELS 3 Xrotation Yrotation Zrotation
						JOINT LHoodieString2
						{
							OFFSET 0.000000 -9.643799 2.679100
							CHANNELS 3 Xrotation Yrotation Zrotation
							End Site
							{
								OFFSET 0.000000 10.009018 0.000000
							}
						}
					}
				}
				JOINT RHoodieString
				{
					OFFSET -5.250500 16.397697 3.089900
					CHANNELS 3 Xrotation Yrotation Zrotation
					JOINT RHoodieString1
					{
						OFFSET -0.257700 -6.364304 3.694600
						CHANNELS 3 Xrotation Yrotation Zrotation
						JOINT RHoodieString2
						{
							OFFSET 0.000000 -9.643799 2.679100
							CHANNELS 3 Xrotation Yrotation Zrotation
							End Site
							{
								OFFSET 0.000000 10.009018 0.000000
							}
						}
					}
				}
			}
			JOINT LBackpack_Strap
			{
				OFFSET 15.223200 -7.719803 -6.610900
				CHANNELS 3 Xrotation Yrotation Zrotation
				End Site
				{
					OFFSET 0.000000 16.040596 0.000000
				}
			}
			JOINT RBackpack_Strap
			{
				OFFSET -15.223000 -7.719803 -6.610900
				CHANNELS 3 Xrotation Yrotation Zrotation
				End Site
				{
					OFFSET 0.000000 16.040596 0.000000
				}
			}
		}
	}
	JOINT BoyFacialAnim_Joint
	{
		OFFSET 1.000000 -82.208099 -1.550900
		CHANNELS 3 Xrotation Yrotation Zrotation
		End Site
		{
			OFFSET 0.000000 30.012791 0.000000
		}
	}
}
MOTION
Frames: 5
Frame Time: 0.033333
8.607530 78.947861 2.716049 -4.643477 -35.970880 -1.755199 -0.000000 -0.000003 -0.000000 -21.286764 11.265658 15.544423 29.100619 9.649786 -1.929661 -1.742069 2.379310 -8.871312 0.000000 -0.000000 0.000000 0.000000 -0.000000 0.000000 -0.000000 0.000001 -0.000001 -9.719971 -12.885844 -16.020511 31.132877 -3.220292 1.381199 -17.310114 -2.254999 11.324279 -0.000000 0.000002 0.000000 -0.000000 0.000002 0.000000 0.000001 0.000003 -0.000000 3.273970 0.421753 0.236973 6.053163 1.059559 -0.436792 6.088776 1.065789 -0.735122 7.905293 3.650265 2.423407 -7.022721 25.624688 -8.204182 -0.000000 0.000000 -0.000000 -0.000000 0.000000 -0.000000 -0.000000 0.000000 -0.000000 -1.198437 4.314673 -15.495247 -11.885319 -23.429605 -61.029304 0.000012 -27.765395 0.000013 11.455014 -25.913784 -2.153887 -14.279574 -15.461322 -0.455311 12.215445 31.854435 -3.212288 0.000001 -0.000002 0.000001 -0.608757 -0.106225 -12.438475 0.194246 1.497597 -14.780801 0.000001 -0.000001 -0.000002 -0.065808 3.394400 -25.227300 0.419739 2.179403 -21.799688 0.000001 -0.000001 0.000002 2.518834 8.436426 -27.747348 0.640196 2.664855 -27.012865 -0.000002 0.000001 -0.000000 3.204094 11.521071 -20.915016 0.105404 1.107454 -10.873263 0.000000 0.000003 0.000000 0.000001 0.000000 0.000003 -0.438483 -8.122711 18.050378 -3.124646 12.954284 58.849948 -0.000004 18.925988 0.000010 21.319561 -25.495713 0.637760 -0.357783 13.523571 3.764039 24.444417 -41.265626 5.964617 -0.000001 0.000005 -0.000003 3.879516 -9.751243 31.749349 2.607997 -4.183023 63.870800 -0.000000 0.000000 0.000002 5.731468 -7.842963 65.685376 4.317360 -4.644784 85.811157 0.000001 -0.000001 -0.000002 2.673650 -6.504534 71.225684 4.033880 -4.615371 82.300378 0.000001 0.000000 0.000000 3.759635 -6.952099 65.885166 2.659208 -4.207692 64.570757 -0.000001 -0.000001 0.000004 -0.000001 -0.000000 0.000000 0.000000 -0.000001 0.000000 0.000000 -0.000001 0.000000 0.000000 -0.000001 0.000000 0.000000 -0.000001 0.000000 0.000000 -0.000001 0.000000 0.000000 -0.000003 0.000001 0.000000 -0.000001 0.000000 0.000000 -0.000001 0.000000 0.000000 -0.000003 0.000001 0.000000 0.000000 -0.000000 0.000000 0.000000 -0.000000 -0.000000 -0.000003 -0.000000 
8.525957 78.933319 2.641073 -4.543151 -35.915672 -1.603409 0.000000 -0.000001 -0.000000 -21.328195 11.264234 15.551236 28.971712 9.657122 -1.972227 -1.623966 2.249957 -8.911733 0.000000 0.000000 0.000000 0.000000 0.000000 0.000000 -0.000000 0.000000 0.000001 -9.928622 -12.871454 -16.033125 31.385809 -3.293200 1.358822 -17.415649 -2.256538 11.247529 -0.000000 -0.000002 -0.000000 -0.000000 -0.000002 -0.000000 -0.000001 -0.000001 0.000001 3.227497 0.421547 0.243883 6.020267 1.059783 -0.434612 6.055597 1.065672 -0.735028 7.897499 3.655872 2.354613 -6.945174 25.578001 -8.284832 -0.000000 0.000000 -0.000000 -0.000000 0.000000 -0.000000 -0.000000 0.000000 -0.000000 -1.226719 4.306805 -15.537608 -11.905964 -23.438762 -60.985284 -0.000021 -27.770723 -0.000022 11.295186 -25.846167 -2.323151 -14.298235 -15.496728 -0.444944 12.203846 31.828774 -3.203804 0.000002 -0.000004 0.000002 -0.605964 -0.103379 -12.406561 0.193922 1.496279 -14.767327 -0.000001 -0.000002 -0.000002 -0.072197 3.382435 -25.252347 0.419294 2.178200 -21.786907 -0.000000 -0.000002 0.000002 2.517508 8.435884 -27.733338 0.639848 2.664200 -27.005834 -0.000000 0.000002 -0.000004 3.208181 11.522786 -20.938973 0.105420 1.107418 -10.873126 -0.000000 0.000000 0.000001 -0.000001 -0.000000 0.000003 -0.480665 -8.068033 18.004944 -3.181441 13.094561 58.825906 0.000014 18.893191 -0.000032 21.490873 -25.431736 0.723805 -0.409519 13.553124 3.860983 24.451790 -41.269437 5.968765 -0.000001 0.000008 0.000001 3.872369 -9.739145 31.752996 2.608510 -4.183265 63.877787 0.000002 0.000000 0.000004 5.737531 -7.842509 65.737135 4.315991 -4.644685 85.794177 0.000001 -0.000000 0.000003 2.677409 -6.506170 71.261139 4.033895 -4.615371 82.300556 -0.000002 0.000001 0.000000 3.764914 -6.953655 65.924617 2.654547 -4.205479 64.507312 -0.000000 -0.000000 -0.000002 0.000002 0.000000 -0.000002 0.000000 0.000000 0.000001 0.000000 0.000000 0.000001 0.000000 0.000000 0.000001 0.000000 0.000000 0.000001 0.000000 0.000000 0.000001 -0.000001 0.000002 -0.000000 0.000000 0.000000 0.000001 0.000000 0.000000 0.000001 -0.000001 0.000002 -0.000000 0.000001 0.000002 -0.000000 0.000001 0.000002 -0.000000 0.000000 -0.000001 -0.000000 
8.437734 78.907455 2.555551 -4.436767 -35.863339 -1.486664 -0.000000 -0.000000 -0.000000 -21.421575 11.174914 15.550007 28.919779 9.665810 -1.936163 -1.517426 2.266859 -9.019113 -0.000000 0.000000 -0.000000 -0.000000 0.000000 -0.000000 -0.000000 -0.000000 -0.000000 -10.220844 -13.006780 -16.146801 31.735555 -3.171689 1.523673 -17.591736 -2.213308 10.954896 0.000000 0.000000 0.000000 0.000000 0.000000 0.000000 -0.000000 -0.000001 0.000001 3.172559 0.409862 0.296672 5.965914 1.060623 -0.411133 6.000533 1.066241 -0.719392 7.877680 3.678266 2.273058 -6.883504 25.600567 -8.344873 0.000000 0.000000 0.000000 0.000000 0.000000 0.000000 0.000000 0.000000 0.000000 -1.251554 4.312516 -15.560156 -11.815216 -23.495502 -60.933675 0.000008 -27.812385 0.000020 11.191096 -25.827560 -2.339895 -14.297267 -15.469846 -0.476956 12.209082 31.841095 -3.207856 -0.000001 0.000003 0.000001 -0.603252 -0.088964 -12.411576 0.193046 1.492962 -14.733784 0.000001 -0.000001 -0.000005 -0.071859 3.382432 -25.241760 0.418160 2.175481 -21.758372 0.000001 0.000000 -0.000003 2.517416 8.436239 -27.729359 0.639302 2.663072 -26.993430 -0.000001 0.000003 -0.000003 3.211297 11.524833 -20.955365 0.105441 1.107566 -10.874621 0.000001 0.000001 0.000002 -0.000001 -0.000002 0.000001 -0.511107 -8.020502 17.960565 -3.244988 13.265589 58.752502 0.000000 18.708373 0.000043 21.707659 -25.320401 0.779549 -0.425384 13.555468 3.904181 24.461971 -41.274686 5.974692 -0.000001 0.000003 -0.000000 3.858612 -9.706665 31.807873 2.609478 -4.183749 63.891133 -0.000001 -0.000001 0.000005 5.739297 -7.842076 65.756997 4.316035 -4.644682 85.794662 -0.000001 0.000000 0.000003 2.682099 -6.508002 71.285878 4.034382 -4.615441 82.306607 0.000001 -0.000000 -0.000001 3.768031 -6.954419 65.955626 2.654936 -4.205656 64.512510 0.000001 -0.000000 0.000000 0.000000 0.000001 0.000001 -0.000001 0.000001 -0.000000 -0.000001 0.000001 -0.000000 -0.000001 0.000001 -0.000000 -0.000001 0.000001 -0.000000 -0.000001 0.000001 -0.000000 -0.000002 0.000001 -0.000000 -0.000001 0.000001 -0.000000 -0.000001 0.000001 -0.000000 -0.000002 0.000001 -0.000000 -0.000000 0.000001 -0.000000 -0.000000 0.000001 -0.000000 -0.000000 -0.000000 -0.000000 
8.336086 78.893982 2.443753 -4.290045 -35.792930 -1.335572 -0.000000 -0.000002 -0.000000 -21.514379 11.149345 15.590395 28.742778 9.676047 -1.947277 -1.334426 2.166113 -9.095657 0.000000 0.000000 -0.000000 0.000000 0.000000 -0.000000 0.000000 0.000001 -0.000001 -10.391861 -12.677584 -15.824688 32.017471 -3.739165 1.214317 -17.703432 -2.259199 11.101948 -0.000000 0.000002 0.000000 -0.000000 0.000002 0.000000 0.000001 0.000004 -0.000000 3.126573 0.398670 0.329531 5.905983 1.061998 -0.369951 5.939369 1.067420 -0.690228 7.821728 3.710977 2.134003 -6.786280 25.574469 -8.299869 0.000000 0.000000 0.000000 0.000000 0.000000 0.000000 0.000000 0.000000 0.000000 -1.277946 4.321333 -15.580609 -11.735074 -23.536050 -60.883391 -0.000006 -27.862775 -0.000016 11.148919 -25.831212 -2.235398 -14.299601 -15.445283 -0.512219 12.210333 31.844828 -3.209023 0.000002 -0.000002 0.000002 -0.598341 -0.078709 -12.370639 0.191697 1.487757 -14.681352 0.000002 -0.000005 -0.000004 -0.069038 3.384246 -25.178097 0.416658 2.171696 -21.718654 0.000001 -0.000002 0.000002 2.515579 8.435580 -27.709690 0.638336 2.661247 -26.973286 -0.000000 0.000001 -0.000004 3.211390 11.525359 -20.954592 0.105442 1.107620 -10.875188 0.000001 0.000001 -0.000005 -0.000003 0.000001 0.000000 -0.553295 -7.959081 17.972229 -3.397313 13.454144 58.616260 0.000001 18.409721 -0.000009 21.987006 -25.120457 0.848213 -0.411449 13.541273 3.890712 24.469824 -41.278733 5.979595 -0.000001 -0.000000 0.000001 3.835452 -9.657028 31.875233 2.610940 -4.184445 63.911091 -0.000000 0.000000 0.000004 5.731013 -7.838276 65.758596 4.316524 -4.644731 85.800782 0.000002 -0.000001 -0.000000 2.688263 -6.510264 71.303029 4.034853 -4.615501 82.312399 0.000000 0.000001 -0.000001 3.765187 -6.952641 65.982496 2.654078 -4.205257 64.500912 0.000002 -0.000001 0.000004 -0.000001 -0.000001 0.000001 0.000001 -0.000001 0.000001 0.000001 -0.000001 0.000001 0.000001 -0.000001 0.000001 0.000001 -0.000001 0.000001 0.000001 -0.000001 0.000001 -0.000000 0.000000 0.000000 0.000001 -0.000001 0.000001 0.000001 -0.000001 0.000001 -0.000000 0.000000 0.000000 -0.000000 0.000003 -0.000000 -0.000000 0.000003 -0.000000 -0.000000 -0.000002 -0.000000 
8.229537 78.874275 2.313122 -4.140433 -35.749579 -1.175603 0.000000 -0.000003 0.000000 -21.613007 11.104801 15.625723 28.567249 9.689021 -1.945609 -1.137043 2.106073 -9.197008 0.000000 0.000000 -0.000000 0.000000 0.000000 -0.000000 0.000000 -0.000000 0.000000 -10.687397 -12.650877 -15.782228 32.345358 -3.842997 1.212552 -17.858793 -2.251118 10.986895 -0.000000 -0.000001 0.000000 -0.000000 -0.000001 0.000000 0.000002 0.000003 -0.000003 3.074379 0.386280 0.368277 5.830475 1.063569 -0.327988 5.862299 1.071750 -0.660263 7.762002 3.738622 1.965621 -6.702988 25.528438 -8.232623 0.000000 0.000000 -0.000000 0.000000 0.000000 -0.000000 0.000000 0.000000 -0.000000 -1.315204 4.327485 -15.525795 -11.644609 -23.614208 -60.924481 -0.000008 -27.891509 -0.000029 11.148344 -25.826403 -2.070538 -14.325835 -15.466905 -0.533059 12.191935 31.805046 -3.195860 -0.000002 -0.000004 -0.000005 -0.589062 -0.077424 -12.235694 0.189929 1.481107 -14.614216 -0.000001 0.000004 -0.000001 -0.068586 3.378482 -25.077559 0.414801 2.167043 -21.669906 0.000000 0.000000 0.000000 2.511436 8.433658 -27.668302 0.637087 2.658745 -26.946037 -0.000002 0.000001 -0.000002 3.209619 11.525362 -20.942262 0.105430 1.107442 -10.873332 -0.000002 -0.000000 0.000001 0.000000 0.000001 -0.000001 -0.599460 -7.901994 17.981687 -3.538622 13.671661 58.477225 -0.000004 18.029089 0.000009 22.279193 -24.883539 0.937041 -0.381967 13.521526 3.841457 24.474955 -41.281472 5.983143 -0.000002 0.000005 0.000000 3.799837 -9.592682 31.916757 2.613302 -4.185624 63.943664 -0.000001 -0.000001 0.000002 5.706327 -7.827466 65.753951 4.316447 -4.644721 85.799723 -0.000000 0.000000 0.000003 2.696152 -6.513069 71.319770 4.034434 -4.615444 82.307324 -0.000001 -0.000001 0.000002 3.753267 -6.946806 66.009967 2.648940 -4.202813 64.430821 -0.000001 -0.000000 -0.000002 -0.000000 -0.000002 -0.000000 0.000000 0.000001 -0.000000 0.000000 0.000001 -0.000000 0.000000 0.000001 -0.000000 0.000000 0.000001 -0.000000 0.000000 0.000001 0.000000 0.000000 -0.000001 0.000000 0.000000 0.000001 -0.000000 0.000000 0.000001 0.000000 0.000000 -0.000001 0.000000 0.000001 0.000000 -0.000000 0.000001 0.000000 -0.000000 0.000000 -0.000003 0.000000 
